<?xml version="1.0" encoding="utf-8"?>
<!-- Generator: Adobe Illustrator 23.0.3, SVG Export Plug-In . SVG Version: 6.00 Build 0)  -->
<svg version="1.1" id="icon_1_" xmlns="http://www.w3.org/2000/svg" xmlns:xlink="http://www.w3.org/1999/xlink" x="0px" y="0px"
	 viewBox="0 0 34 34" style="enable-background:new 0 0 34 34;" xml:space="preserve">
<style type="text/css">
	.st0{fill:#FFFFFF;}
</style>
<g id="icon">
	<g>
		<path class="st0" d="M31.88,10.66L16.16,0.85c-1.91-1.19-4.35-0.53-5.47,1.27l-9.8,15.74c-1.19,1.91-0.64,4.28,1.27,5.48
			l15.73,9.81c1.8,1.12,4.28,0.64,5.47-1.27l9.8-15.74C34.27,14.34,33.68,11.78,31.88,10.66z M10.33,20.48
			c-0.77,1.24-2.41,1.62-3.65,0.85c-1.24-0.77-1.62-2.41-0.85-3.65c0.77-1.24,2.41-1.62,3.65-0.85
			C10.72,17.6,11.1,19.25,10.33,20.48z M12.7,6.66c0.77-1.24,2.34-1.51,3.58-0.74c1.24,0.77,1.69,2.3,0.92,3.54
			c-0.77,1.24-2.41,1.62-3.65,0.85C12.31,9.54,11.93,7.9,12.7,6.66z M14.77,15.6c0.77-1.24,2.41-1.62,3.65-0.85
			c1.24,0.77,1.62,2.41,0.85,3.65c-0.77,1.24-2.41,1.62-3.65,0.85C14.38,18.48,14,16.84,14.77,15.6z M21.22,27.28
			c-0.77,1.24-2.3,1.69-3.54,0.92c-1.24-0.77-1.62-2.41-0.85-3.65c0.77-1.24,2.41-1.62,3.65-0.85
			C21.73,24.47,21.99,26.04,21.22,27.28z M28.09,16.26c-0.77,1.24-2.3,1.69-3.53,0.92c-1.24-0.77-1.62-2.41-0.85-3.65
			c0.77-1.24,2.34-1.51,3.58-0.74C28.52,13.56,28.86,15.02,28.09,16.26z"/>
	</g>
</g>
</svg>
