<?xml version="1.0" encoding="utf-8"?>
<!-- Generator: Adobe Illustrator 23.0.3, SVG Export Plug-In . SVG Version: 6.00 Build 0)  -->
<svg version="1.1" id="icon_1_" xmlns="http://www.w3.org/2000/svg" xmlns:xlink="http://www.w3.org/1999/xlink" x="0px" y="0px"
	 viewBox="0 0 32 32" style="enable-background:new 0 0 32 32;" xml:space="preserve">
<style type="text/css">
	.st0{fill-rule:evenodd;clip-rule:evenodd;fill:#3C4252;}
</style>
<g id="icon">
	<g>
		<path class="st0" d="M23.85,16.12c-0.92-0.6-1.5-0.79-1.47-1.99c0.02-0.87,0.13-2.33-0.85-2.78c-0.34-0.16-0.73-0.09-1.08,0
			c-0.06-0.52,0.47-1.03,0.29-1.58c-0.23-0.69-0.82-1.04-1.43-1.33c-0.53-0.25-1.01-0.61-1.4-1.04c-0.74-0.8-1.45-1.48-2.52-1.8
			c-1.92-0.59-4.53-0.15-6.06,1.19c-1.22,1.07-2.94,3.66-1.57,5.17c0.9,0.99,2.41,0.97,3.62,1.18c0.85,0.15,1.87,0.5,1.69,1.56
			c-0.11,0.69-0.77,1.17-0.72,1.9c0.06,0.79,0.78,1.46,0.57,2.3c-0.2,0.82-1.16,1.18-1.4,2.01c-0.33,1.11,0.1,2.46,0.09,3.6
			c-0.01,0.87-0.27,2,0.87,2.13c1.29,0.15,2.71-0.66,3.77-1.3c0.98-0.59,2.12-1.1,3-1.83c0.95-0.79,0.84-1.7,1.25-2.75
			C21.11,19.18,26.95,18.14,23.85,16.12z M16,0C7.16,0,0,7.16,0,16c0,8.84,7.16,16,16,16c8.84,0,16-7.16,16-16C32,7.16,24.84,0,16,0
			z M25.31,6.58c0.33,0.1,0.73,0.37,0.86,0.7c-0.36,0.23-0.96-0.16-1.48-0.3C24.8,6.78,24.78,6.41,25.31,6.58z M20.71,2.15
			c-0.24-0.02-0.48-0.09-0.72-0.21c-0.02-0.01-0.04-0.02-0.06-0.03C20.19,1.98,20.45,2.06,20.71,2.15z M16,30.63
			c-6.14,0-11.41-3.81-13.58-9.19c0.17-0.78,0.15-1.61,0.14-2.41c-0.03-1.67,1.18-2.56,1.54-4.07c0.42-1.76-1.31-2.73-1.53-4.3
			c-0.02-0.17-0.01-0.34,0.02-0.5C4.85,4.99,10.01,1.37,16,1.37c0.6,0,1.19,0.04,1.77,0.11c0.01,0.5,0.48,0.75,0.53,1.21
			c0.11,0.98-1.34,0.37-1.83,0.73c-1.16,0.86,0.27,2.11,1.27,2.01c0.87-0.09,1.77-1.3,2.64-0.85c0.95,0.49-0.03,1.6,0.58,2.08
			c0.36,0.28,0.73-0.18,0.81-0.5c0.05-0.22-0.58-1.78,0.3-1.43c0.41,0.16,0.42,1.39,0.66,1.73c0.3,0.41,0.56-0.04,1.02-0.07
			c0.59-0.04,0.43,0.34,0.53,0.56c-0.01,0-0.01,0-0.02,0c-1.2,0.22,0.06,1.17,0.67,1.24c0.86,0.1,1.18,0.31,0.56,1.03
			c-0.67,0.78,0.23,1.05,0.38,1.92c0.08,0.48-0.03,0.98,0.09,1.45c0.09,0.37,0.32,0.68,0.48,1.03c0.24,0.53,0.08,1.43,0.55,1.77
			c0.7,0.52,2.14,0.6,2.34-0.38c0.08-0.4-0.08-0.57,0.35-0.6c0.25-0.02,0.67,0.22,0.89,0.44c0.03,0.38,0.05,0.77,0.05,1.16
			C30.63,24.06,24.07,30.63,16,30.63z"/>
	</g>
</g>
</svg>
