<?xml version="1.0" encoding="utf-8"?>
<!-- Generator: Adobe Illustrator 23.0.3, SVG Export Plug-In . SVG Version: 6.00 Build 0)  -->
<svg version="1.1" id="icon_1_" xmlns="http://www.w3.org/2000/svg" xmlns:xlink="http://www.w3.org/1999/xlink" x="0px" y="0px"
	 viewBox="0 0 42 32" style="enable-background:new 0 0 42 32;" xml:space="preserve">
<style type="text/css">
	.st0{fill-rule:evenodd;clip-rule:evenodd;fill:#FFFFFF;}
</style>
<g id="icon">
	<g>
		<path class="st0" d="M41.91,15.88L41.91,15.88c-2.6-2.37-5.2-4.74-7.82-7.09c0,0.67,0,2.63-0.01,4.92H20.7v4.57h13.39
			c0,2.29,0,4.25,0.01,4.92c2.58-2.29,5.12-4.64,7.68-6.95C41.88,16.15,42.13,16,41.91,15.88z M16.1,27.43
			C9.76,27.43,4.6,22.3,4.6,16c0-6.3,5.16-11.43,11.5-11.43c3.74,0,7.04,1.81,9.14,4.57h5.38C28.03,3.74,22.5,0,16.1,0
			C7.22,0,0,7.18,0,16c0,8.82,7.22,16,16.1,16c6.4,0,11.93-3.75,14.52-9.14h-5.38C23.14,25.61,19.84,27.43,16.1,27.43z"/>
	</g>
</g>
</svg>
