<?xml version="1.0" encoding="utf-8"?>
<!-- Generator: Adobe Illustrator 23.0.3, SVG Export Plug-In . SVG Version: 6.00 Build 0)  -->
<svg version="1.1" xmlns="http://www.w3.org/2000/svg" xmlns:xlink="http://www.w3.org/1999/xlink" x="0px" y="0px"
	 viewBox="0 0 90 90" style="enable-background:new 0 0 90 90;" xml:space="preserve">
<style type="text/css">
	.st0{enable-background:new    ;}
	.st1{fill:#2DB2F0;}
	.st2{fill-rule:evenodd;clip-rule:evenodd;fill:#FFFFFF;}
</style>
<g id="bg_1_" class="st0">
	<g id="bg">
		<g>
			<ellipse transform="matrix(0.7882 -0.6154 0.6154 0.7882 -18.1626 37.2242)" class="st1" cx="45" cy="45" rx="45" ry="45"/>
		</g>
	</g>
</g>
<g id="icon_1_" class="st0">
	<g id="icon">
		<g>
			<path class="st2" d="M37.19,38.43c0-0.41-0.13-0.79-0.38-1.12c-0.24-0.3-0.59-0.53-0.97-0.61l-9.93-2.32c0,0-0.01,0-0.01,0
				l-1.75-0.41c-0.13-0.03-0.27-0.05-0.4-0.05c-0.39,0-0.77,0.13-1.08,0.38C22.24,34.64,22,35.15,22,35.7v5.47
				c0,0.54,0.24,1.05,0.66,1.39c0.42,0.34,0.96,0.46,1.49,0.34l1.75-0.41c0,0,0.01,0,0.01,0l9.92-2.32
				C36.63,39.97,37.19,39.26,37.19,38.43z M36.16,55.61c-1.28,0-2.46-0.71-3.07-1.86c-0.61-1.14-0.54-2.53,0.17-3.61l4.83-7.31
				c-0.28-0.34-0.5-0.72-0.66-1.14c-0.35,0.22-0.74,0.39-1.16,0.49l-9.13,2.14V66.6c0,1.33,1.07,2.4,2.38,2.4h13.94V46.86
				l-4.37,7.09C38.47,54.99,37.37,55.61,36.16,55.61z M51.73,35.08c0.31-0.17,0.64-0.31,0.99-0.39l9.17-2.15v-6.13
				c0-1.33-1.07-2.41-2.38-2.41H45.52v7.9h2.37C49.79,31.89,51.38,33.27,51.73,35.08z M34.97,51.29c-0.3,0.45-0.33,1.01-0.07,1.49
				c0.25,0.48,0.73,0.77,1.26,0.77c0.5,0,0.95-0.26,1.22-0.68l5.28-8.58H39.6L34.97,51.29z M37.27,35.08
				c0.36-1.81,1.94-3.19,3.84-3.19h2.37v-7.9H29.54c-1.31,0-2.38,1.08-2.38,2.41v6.15l9.13,2.14
				C36.63,34.77,36.96,34.91,37.27,35.08z M66.33,34.3c-0.31-0.25-0.69-0.38-1.08-0.38c-0.13,0-0.27,0.01-0.4,0.05l-1.69,0.4
				c-0.01,0-0.01,0-0.01,0.01l-9.97,2.33c-0.19,0.04-0.38,0.12-0.54,0.23c-0.06,0.04-0.1,0.1-0.16,0.14
				c-0.1,0.08-0.2,0.15-0.28,0.25c-0.25,0.32-0.38,0.7-0.38,1.11c0,0.83,0.56,1.54,1.37,1.73l9.97,2.33c0.01,0,0.01,0.01,0.02,0.01
				l1.69,0.4c0.52,0.12,1.06,0,1.49-0.34c0.42-0.34,0.66-0.84,0.66-1.39V35.7C67,35.15,66.76,34.64,66.33,34.3z M51.55,41.69
				c-0.15,0.42-0.38,0.8-0.66,1.15l4.83,7.31c0.71,1.08,0.78,2.46,0.17,3.61c-0.61,1.15-1.78,1.86-3.07,1.86
				c-1.21,0-2.31-0.62-2.95-1.66l-4.37-7.09V69h13.99c1.31,0,2.38-1.08,2.38-2.4V44.32l-9.18-2.15
				C52.29,42.07,51.9,41.91,51.55,41.69z M49.77,40.32v-4.47c0-1.04-0.84-1.89-1.87-1.89h-6.79c-1.03,0-1.87,0.85-1.87,1.89v4.47
				c0,1.04,0.84,1.89,1.87,1.89h6.79C48.92,42.22,49.77,41.37,49.77,40.32z M52.84,53.54c0.54,0,1.01-0.29,1.26-0.77
				c0.25-0.48,0.23-1.04-0.07-1.49l-4.63-7.01h-3.06l5.28,8.58C51.88,53.29,52.34,53.54,52.84,53.54z"/>
		</g>
	</g>
</g>
</svg>
