<?xml version="1.0" encoding="utf-8"?>
<!-- Generator: Adobe Illustrator 23.0.3, SVG Export Plug-In . SVG Version: 6.00 Build 0)  -->
<svg version="1.1" xmlns="http://www.w3.org/2000/svg" xmlns:xlink="http://www.w3.org/1999/xlink" x="0px" y="0px"
	 viewBox="0 0 82 82" style="enable-background:new 0 0 82 82;" xml:space="preserve">
<style type="text/css">
	.st0{enable-background:new    ;}
	.st1{fill:#7D8EA0;}
	.st2{fill-rule:evenodd;clip-rule:evenodd;fill:#FFFFFF;}
</style>
<g id="Ellipse_2629_1_" class="st0">
	<g id="Ellipse_2629">
		<g>
			<ellipse transform="matrix(0.9966 -0.0825 0.0825 0.9966 -3.242 3.5214)" class="st1" cx="41" cy="41" rx="41" ry="41"/>
		</g>
	</g>
</g>
<g id="Shape_2628_1_" class="st0">
	<g id="Shape_2628">
		<g>
			<path class="st2" d="M40.5,21C31.42,21,24,28.27,24,37.15v11.31c0,0.97,0.66,1.62,1.65,1.62h3.3c0.99,0,1.65-0.65,1.65-1.62
				v-7.11c0-0.65-0.33-1.13-0.99-1.45l-2.31-1.13v-1.62c0-7.11,5.94-12.92,13.2-12.92c7.26,0,13.2,5.82,13.2,12.92v1.62l-2.31,1.13
				c-0.5,0.32-0.99,0.81-0.99,1.45v7.11c0,0.97,0.66,1.62,1.65,1.62h3.3c0.99,0,1.65-0.65,1.65-1.62V37.15
				C57,28.27,49.57,21,40.5,21z M47.1,58.15h-3.8c-0.49-0.97-1.65-1.61-2.8-1.61c-1.82,0-3.3,1.45-3.3,3.23
				c0,1.78,1.49,3.23,3.3,3.23c1.15,0,2.31-0.65,2.8-1.62h3.8c4.62,0,8.25-3.55,8.25-8.08h-3.3C52.05,56.05,49.9,58.15,47.1,58.15z"
				/>
		</g>
	</g>
</g>
</svg>
