<?xml version="1.0" encoding="utf-8"?>
<!-- Generator: Adobe Illustrator 23.0.3, SVG Export Plug-In . SVG Version: 6.00 Build 0)  -->
<svg version="1.1" id="Shape_2628_1_" xmlns="http://www.w3.org/2000/svg" xmlns:xlink="http://www.w3.org/1999/xlink" x="0px"
	 y="0px" viewBox="0 0 33 42" style="enable-background:new 0 0 33 42;" xml:space="preserve">
<style type="text/css">
	.st0{fill-rule:evenodd;clip-rule:evenodd;fill:#FFFFFF;}
</style>
<g id="Shape_2628">
	<g>
		<path class="st0" d="M16.5,0C7.42,0,0,7.27,0,16.15v11.31c0,0.97,0.66,1.62,1.65,1.62h3.3c0.99,0,1.65-0.65,1.65-1.62v-7.11
			c0-0.65-0.33-1.13-0.99-1.45L3.3,17.77v-1.62c0-7.11,5.94-12.92,13.2-12.92c7.26,0,13.2,5.82,13.2,12.92v1.62l-2.31,1.13
			c-0.5,0.32-0.99,0.81-0.99,1.45v7.11c0,0.97,0.66,1.62,1.65,1.62h3.3c0.99,0,1.65-0.65,1.65-1.62V16.15C33,7.27,25.57,0,16.5,0z
			 M23.1,37.15h-3.8c-0.49-0.97-1.65-1.61-2.8-1.61c-1.82,0-3.3,1.45-3.3,3.23c0,1.78,1.49,3.23,3.3,3.23c1.15,0,2.31-0.65,2.8-1.62
			h3.8c4.62,0,8.25-3.55,8.25-8.08h-3.3C28.05,35.05,25.9,37.15,23.1,37.15z"/>
	</g>
</g>
</svg>
