<?xml version="1.0" encoding="utf-8"?>
<!-- Generator: Adobe Illustrator 23.0.3, SVG Export Plug-In . SVG Version: 6.00 Build 0)  -->
<svg version="1.1" id="icon_1_" xmlns="http://www.w3.org/2000/svg" xmlns:xlink="http://www.w3.org/1999/xlink" x="0px" y="0px"
	 viewBox="0 0 33 36" style="enable-background:new 0 0 33 36;" xml:space="preserve">
<style type="text/css">
	.st0{fill-rule:evenodd;clip-rule:evenodd;fill:#0B76FF;}
</style>
<g id="icon">
	<g>
		<path class="st0" d="M24.76,21.6H17.5c-0.54,0-0.98,0.43-0.98,0.96v1.68c0,0.53,0.44,0.96,0.98,0.96h7.21
			c0.54,0,0.98-0.43,0.98-0.96v-1.68C25.74,22.03,25.3,21.6,24.76,21.6z M29.32,0H3.68C1.67,0,0,1.58,0,3.6v30.62
			C0,35.23,0.83,36,1.86,36c0.25,0,0.54-0.05,0.78-0.19l2.84-1.39l2.84,1.39c0.54,0.24,1.13,0.24,1.62,0l2.84-1.39l2.84,1.39
			c0.54,0.24,1.13,0.24,1.62,0l2.84-1.39l2.84,1.39c0.54,0.24,1.13,0.24,1.67,0l2.89-1.39l2.84,1.39c0.93,0.43,2.01,0.1,2.45-0.82
			c0.15-0.24,0.2-0.53,0.2-0.82V3.6C33,1.63,31.38,0,29.32,0z M29.42,31.29l-1.03-0.48c-0.54-0.24-1.13-0.24-1.62,0l-2.84,1.39
			l-2.89-1.39c-0.54-0.24-1.13-0.24-1.62,0l-2.84,1.39l-2.84-1.39c-0.54-0.24-1.13-0.24-1.62,0L9.27,32.2l-2.89-1.39
			c-0.54-0.24-1.13-0.24-1.67,0l-1.03,0.48V3.6h25.74V31.29z M8.33,10.8h16.43c0.54,0,0.98-0.43,0.98-0.96V8.16
			c0-0.53-0.44-0.96-0.98-0.96H8.33c-0.54,0-0.98,0.43-0.98,0.96v1.68C7.35,10.37,7.8,10.8,8.33,10.8z M8.33,18h16.43
			c0.54,0,0.98-0.43,0.98-0.96v-1.68c0-0.53-0.44-0.96-0.98-0.96H8.33c-0.54,0-0.98,0.43-0.98,0.96v1.68C7.35,17.57,7.8,18,8.33,18z
			"/>
	</g>
</g>
</svg>
