<?xml version="1.0" encoding="utf-8"?>
<!-- Generator: Adobe Illustrator 23.0.3, SVG Export Plug-In . SVG Version: 6.00 Build 0)  -->
<svg version="1.1" xmlns="http://www.w3.org/2000/svg" xmlns:xlink="http://www.w3.org/1999/xlink" x="0px" y="0px"
	 viewBox="0 0 90 90" style="enable-background:new 0 0 90 90;" xml:space="preserve">
<style type="text/css">
	.st0{enable-background:new    ;}
	.st1{fill:#0656F9;}
	.st2{fill-rule:evenodd;clip-rule:evenodd;fill:#FFFFFF;}
</style>
<g id="bg_1_" class="st0">
	<g id="bg">
		<g>
			<ellipse transform="matrix(0.9487 -0.3162 0.3162 0.9487 -11.9208 16.5394)" class="st1" cx="45" cy="45" rx="45" ry="45"/>
		</g>
	</g>
</g>
<g id="icon_1_" class="st0">
	<g id="icon">
		<g>
			<path class="st2" d="M67.28,27.75L48.71,16.97C48.54,16.87,46.98,16,44.9,16c-1.29,0-2.5,0.33-3.61,0.97L22.71,27.75
				c-1.38,0.8-3.71,3.06-3.71,6.47v21.57c0,1.6,0.78,4.76,3.71,6.46l18.58,10.78c0.17,0.1,1.73,0.97,3.81,0.97
				c1.29,0,2.5-0.33,3.61-0.97l18.58-10.78c1.38-0.8,3.71-3.06,3.71-6.46V34.22C71,32.61,70.21,29.45,67.28,27.75z M43.34,20.55
				c0.48-0.28,0.99-0.42,1.56-0.42c0.98,0,1.75,0.42,1.76,0.42l18.44,10.7l-9.93,5.77l-1.14-1.15c-0.26-0.26-2.64-2.56-6.13-2.56
				h-4.7c-0.19,0-4.71,0.04-7.98,3.33l-0.38,0.38l-9.92-5.77L43.34,20.55z M42.94,69.21L24.76,58.66c-1.59-0.92-1.65-2.83-1.65-2.88
				V34.99l8.71,5.06l-0.92,0.92c-1.67,1.68-3.05,5.3,0,8.37l5.07,5.1C36.23,54.7,38.61,57,42.11,57h0.83V69.21z M42.11,52.86
				c-1.82,0-3.22-1.34-3.23-1.35l-5.07-5.1c-0.81-0.81-0.8-1.66,0-2.52l4.31-4.33c2.04-2.05,5.06-2.11,5.07-2.11h4.7
				c1.82,0,3.22,1.34,3.23,1.34l5.07,5.1c0.81,0.81,0.8,1.66,0,2.52l-4.31,4.33c-2.01,2.03-4.98,2.11-5.08,2.12H42.11z M65.23,58.66
				L47.05,69.21V56.99c1.01-0.05,4.86-0.42,7.73-3.32l4.31-4.33c1.67-1.68,3.05-5.3,0-8.37l-0.92-0.92l8.71-5.06v20.79h0
				C66.88,57.63,65.28,58.63,65.23,58.66z M45,39.38c-3.06,0-5.55,2.52-5.55,5.62c0,3.1,2.49,5.62,5.55,5.62
				c3.06,0,5.55-2.52,5.55-5.62C50.54,41.9,48.05,39.38,45,39.38z"/>
		</g>
	</g>
</g>
</svg>
