<?xml version="1.0" encoding="utf-8"?>
<!-- Generator: Adobe Illustrator 23.0.3, SVG Export Plug-In . SVG Version: 6.00 Build 0)  -->
<svg version="1.1" id="Shape_9_1_" xmlns="http://www.w3.org/2000/svg" xmlns:xlink="http://www.w3.org/1999/xlink" x="0px" y="0px"
	 viewBox="0 0 70 70" style="enable-background:new 0 0 70 70;" xml:space="preserve">
<style type="text/css">
	.st0{fill:#FFFFFF;}
</style>
<g id="Shape_9">
	<g>
		<path class="st0" d="M69.05,23.13c0.33-0.29,0.63-0.6,0.95-0.9v-0.41c-0.13-2.69-0.27-5.38-0.4-8.06c-0.07-1.55-0.1-3.1-0.23-4.64
			c-0.03-0.37-0.31-0.83-0.62-1.05c-1.06-0.73-1.26-1.51-0.56-2.6c0.09-0.14,0.22-0.26,0.31-0.4c0.31-0.49,0.97-1.23,0.83-1.42
			c-0.47-0.68-1.14-1.53-1.88-1.68c-1.75-0.37-3.57-0.42-5.36-0.49c-0.36-0.01-0.78,0.42-1.11,0.72c-0.31,0.28-0.52,0.66-0.96,1.23
			c-0.3-2.15-1.85-2.04-3.2-2.23c-2.89-0.4-5.79-0.76-8.68-1.17c-0.81-0.11-1.43,0.03-1.71,0.86c-0.57,1.73-2.08,1.98-3.58,2.17
			c-0.29,0.04-0.66-0.33-0.96-0.57c-0.26-0.2-0.42-0.62-0.69-0.68c-1.85-0.45-3.7-0.98-5.58-1.17c-1.92-0.2-3.88-0.2-5.8,0
			c-0.9,0.09-1.77,0.8-2.59,1.32c-0.78,0.48-1.57,0.71-2.49,0.67c-1.56-0.06-3.13,0-4.69-0.03c-0.93-0.02-1.88,0.05-2.51-0.95
			c-0.18-0.29-0.86-0.37-1.31-0.37C11.61,1.3,6.98,1.41,2.36,1.41c-1.56,0-1.26,1.18-1.53,2.01C0.57,4.25,0.78,4.9,1.74,5.1
			c0.58,0.12,0.73,0.47,0.69,1.03C2.27,8.35,2.16,10.57,2,12.79c-0.02,0.31-0.16,0.66-0.35,0.92c-0.52,0.7-1.1,1.37-1.66,2.04v1.42
			c0.11,0.93,0.14,1.88,0.37,2.79c0.25,0.99,0.71,1.93,1.02,2.9c0.18,0.55,0.4,1.14,0.35,1.69C1.55,26.49,1.27,28.42,1,30.36
			c-0.09,0.7,0.05,1.1,0.87,1.26c1.24,0.24,1.32,0.46,0.93,1.69c-0.17,0.55-0.32,1.13-0.63,1.6c-1.07,1.58-1.21,3.32-1.12,5.14
			c0.04,0.74,0.05,1.49,0,2.23c-0.06,0.94,0.04,1.71,1.09,2.1c0.23,0.08,0.42,0.59,0.42,0.89c-0.02,1.72-0.11,3.44-0.18,5.16
			c-0.03,0.89-0.11,1.7-0.93,2.33c-0.32,0.25-0.41,0.91-0.44,1.39c-0.18,3.2-0.32,6.4-0.45,9.6c-0.07,1.84,1.41,3.11,3.29,2.86
			c0.47-0.06,0.93-0.24,1.4-0.27c0.8-0.06,1.61-0.09,2.42-0.06c1.96,0.09,3.92,0.27,5.88,0.32c4.48,0.1,8.97,0.13,13.45,0.21
			c1.03,0.02,1.85,0.3,1.86,1.62c0,0.73,0.65,0.99,1.26,0.73c0.7-0.3,1.37-0.73,1.97-1.21c0.96-0.76,3.08-0.4,3.68,0.71
			c0.94,1.74,1.87,1.8,2.9,0.12c0.56-0.92,1.28-1.26,2.34-1.25c3.26,0.01,6.53-0.03,9.79-0.12c0.72-0.02,1.47-0.25,2.14-0.53
			c0.87-0.37,1.71-0.51,2.56-0.11c2.32,1.11,4.78,0.74,7.31,0.81c-0.04-1.39,0.9-1.62,1.92-1.51c1.1,0.12,2.19,0.39,3.25,0.68
			c0.66,0.18,1.04,0.18,1.07-0.63c0.1-2.36,0.24-4.71,0.34-7.07c0.16-4.04,0.29-8.09,0.44-12.13c0.02-0.53,0.12-1.07,0.18-1.6v-5.47
			c-0.56,0.1-1.12,0.25-1.68,0.27c-0.37,0.01-0.75-0.15-1.13-0.24c0.14-0.5,0.17-1.37,0.43-1.44c1.08-0.31,1.06-1.04,1.04-1.87
			c-0.02-0.64-0.01-1.28,0.06-1.91c0.21-1.79,0.01-3.38-1.33-4.82c-1.02-1.1-0.85-1.37,0.28-2.54c0.16-0.17,0.21-0.56,0.14-0.79
			C67.36,25.04,68.03,24.03,69.05,23.13z M43.02,15.39c0.36-0.15,0.72-0.34,1.09-0.45c2.7-0.78,5.4-1.57,8.12-2.28
			c0.46-0.12,1.09-0.01,1.5,0.23c0.96,0.55,1.88,1.21,2.74,1.91c0.25,0.2,0.44,0.71,0.37,1.01c-0.66,2.82-1.38,5.62-2.08,8.43
			c-0.17,0.7-0.46,0.95-1.11,0.41c-3.08-2.54-6.17-5.06-9.26-7.58c-0.52-0.42-1.05-0.84-1.57-1.25
			C42.89,15.66,42.95,15.53,43.02,15.39z M26.02,55.01c-1.57,0.94-3.13,1.91-4.77,2.73c-0.72,0.36-1.62,0.53-2.43,0.49
			c-2.29-0.09-4.42-0.69-6.09-2.4c-0.59-0.6-1.29-1.1-1.92-1.66c-1.34-1.18-1.36-1.19-0.73-2.8c1.08-2.77,2.18-5.52,3.29-8.28
			c0.2-0.49,0.47-0.95,0.78-1.56c0.81,0.71,1.54,1.31,2.22,1.96c3.3,3.12,6.59,6.24,9.86,9.38C27.49,54.09,27.48,54.13,26.02,55.01z
			 M60.32,46.12c-0.6,2.73-1.04,5.5-1.55,8.25c-0.31,1.65-0.45,1.8-2.16,1.96c-1.08,0.1-2.17,0.13-3.26,0.19
			c-2.66,0.67-4.39-0.55-6.17-2.45c-11.87-12.72-23.85-25.34-35.79-38c-0.63-0.66-1.25-1.33-1.84-2.03
			c-0.44-0.52-0.34-0.92,0.34-1.12c0.95-0.28,1.88-0.7,2.84-0.77c0.79-0.06,1.73,0.1,2.41,0.49c1.85,1.07,3.61,2.29,5.37,3.49
			c12.72,8.67,25.41,17.38,38.17,26C60.24,43.2,60.71,44.34,60.32,46.12z"/>
	</g>
</g>
</svg>
