<?xml version="1.0" encoding="utf-8"?>
<!-- Generator: Adobe Illustrator 23.0.3, SVG Export Plug-In . SVG Version: 6.00 Build 0)  -->
<svg version="1.1" id="Shape_1664_1_" xmlns="http://www.w3.org/2000/svg" xmlns:xlink="http://www.w3.org/1999/xlink" x="0px"
	 y="0px" viewBox="0 0 72 72" style="enable-background:new 0 0 72 72;" xml:space="preserve">
<style type="text/css">
	.st0{fill:#0656F9;}
  .st1{filter:url(#Adobe_OpacityMaskFilter);}
	.st2{mask:url(#Ellipse_2774_3_);enable-background:new    ;}
	.st3{fill-rule:evenodd;clip-rule:evenodd;fill:#0656F9;}
  .st4{fill-rule:evenodd;clip-rule:evenodd;fill:#2DB2F0;}
</style>
<g id="Shape_1664">
	<g>
		<path class="st0" d="M35.8-0.04C15.87,0.09-0.32,16.53-0.16,36.47C0,56.32,16.14,72.37,36.03,72.37V59.63
			c-13.35,0-24.13-11.22-23.42-24.74C13.25,23,22.87,13.37,34.75,12.74c13.51-0.72,24.72,10.07,24.72,23.43c0,0.03,0,0.06,0,0.1
			h12.74c0,0,0,0,0,0C72.27,16.14,55.92-0.17,35.8-0.04z"/>
	</g>
</g>
<defs>
	<filter id="Adobe_OpacityMaskFilter" filterUnits="userSpaceOnUse" x="0" y="0" width="77.79" height="77.94">
		<feColorMatrix  type="matrix" values="1 0 0 0 0  0 1 0 0 0  0 0 1 0 0  0 0 0 1 0"/>
	</filter>
</defs>
<mask maskUnits="userSpaceOnUse" x="0" y="0" width="77.79" height="77.94" id="Ellipse_2774_3_">
	<g id="Ellipse_2774Непрозрачная_маска_3_" class="st1">

			<image style="overflow:visible;" width="81" height="81" id="Ellipse_2774Непрозрачная_маска_2_" xlink:href="89586C02.jpg"  transform="matrix(1 0 0 1 -2.5 -2.5)">
		</image>
	</g>
</mask>
<g id="Ellipse_2774_1_" class="st2">
	<g id="Ellipse_2774">
		<g>
			<path class="st3" d="M38.89,0C17.41,0,0,17.45,0,38.97C0,60.5,17.41,77.94,38.89,77.94c21.48,0,38.89-17.45,38.89-38.97
				C77.79,17.45,60.37,0,38.89,0z M38.89,61.9c-12.63,0-22.87-10.26-22.87-22.93c0-12.66,10.24-22.93,22.87-22.93
				s22.87,10.26,22.87,22.93C61.77,51.63,51.53,61.9,38.89,61.9z"/>
		</g>
	</g>
</g>
<image style="overflow:visible;" width="54" height="58" id="Layer_1_xA0_Изображение" xlink:href="2675ED2.png" >
</image>
<g id="Shape_1663">
	<g>
		<polygon class="st4" points="39.05,23.77 26.88,11.56 38.5,-0.09 -0.39,-0.09 -0.39,38.9 11.45,27.03 23.63,39.24 		"/>
	</g>
</g>
</svg>
