<?xml version="1.0" encoding="utf-8"?>
<!-- Generator: Adobe Illustrator 23.0.3, SVG Export Plug-In . SVG Version: 6.00 Build 0)  -->
<svg version="1.1" id="icon_1_" xmlns="http://www.w3.org/2000/svg" xmlns:xlink="http://www.w3.org/1999/xlink" x="0px" y="0px"
	 viewBox="0 0 42 32" style="enable-background:new 0 0 42 32;" xml:space="preserve">
<style type="text/css">
	.st0{fill-rule:evenodd;clip-rule:evenodd;fill:#A2ABB8;}
</style>
<g id="icon">
	<g>
		<path class="st0" d="M5.74,26.66h4.29c0.28,0,0.47-0.19,0.47-0.47v-2.6c0-0.28-0.19-0.47-0.47-0.47H5.74
			c-0.28,0-0.47,0.19-0.47,0.47v2.6C5.27,26.47,5.46,26.66,5.74,26.66z M38.5,0h-28C8.59,0,7,1.61,7,3.55V7.1H1.87
			C0.84,7.1,0,7.95,0,9v21.07c0,1.09,0.84,1.94,1.87,1.89h31.27c1.03,0,1.87-0.85,1.87-1.89v-5.21h3.5c1.91,0,3.5-1.61,3.5-3.55
			V3.55C42,1.61,40.41,0,38.5,0z M31.5,28.41h-28V10.65h28V28.41z M38.5,21.31H35V9c0-1.04-0.84-1.89-1.87-1.89H10.5
			c0-1.56,0-3.55,0-3.55h28V21.31z M24.97,16h4.29c0.28,0,0.47-0.19,0.47-0.47v-2.6c0-0.28-0.19-0.47-0.47-0.47h-4.29
			c-0.23,0-0.47,0.19-0.47,0.47v2.6C24.5,15.81,24.69,16,24.97,16z M17.5,24.86c2.89,0,5.23-2.37,5.23-5.3c0-2.93-2.34-5.3-5.23-5.3
			c-2.89,0-5.23,2.37-5.23,5.3C12.27,22.48,14.61,24.86,17.5,24.86z"/>
	</g>
</g>
</svg>
