<?xml version="1.0" encoding="utf-8"?>
<!-- Generator: Adobe Illustrator 23.0.3, SVG Export Plug-In . SVG Version: 6.00 Build 0)  -->
<svg version="1.1" id="Shape_1918_1_" xmlns="http://www.w3.org/2000/svg" xmlns:xlink="http://www.w3.org/1999/xlink" x="0px"
	 y="0px" viewBox="0 0 36 38" style="enable-background:new 0 0 36 38;" xml:space="preserve">
<style type="text/css">
	.st0{fill-rule:evenodd;clip-rule:evenodd;fill:#A2ABB8;}
</style>
<g id="Shape_1918">
	<g>
		<path class="st0" d="M25.68,32.55h4.42c0.29,0,0.48-0.19,0.48-0.48v-2.65c0-0.29-0.19-0.48-0.48-0.48h-4.42
			c-0.29,0-0.48,0.19-0.48,0.48v2.65C25.2,32.36,25.39,32.55,25.68,32.55z M10.32,18.09H5.9c-0.29,0-0.48,0.19-0.48,0.48v2.65
			c0,0.29,0.19,0.48,0.48,0.48h4.42c0.29,0,0.48-0.19,0.48-0.48v-2.65C10.8,18.28,10.61,18.09,10.32,18.09z M34.08,12.69H19.82V6.22
			l2.3,2.27c0.05,0.05,0.05,0.05,0.1,0.1c0.72,0.67,1.87,0.63,2.54-0.1c0.67-0.72,0.62-1.88-0.1-2.56l-5.42-5.4
			c-0.72-0.72-1.82-0.72-2.54,0l-5.38,5.45c-0.62,0.67-0.62,1.78,0,2.46c0.67,0.72,1.82,0.77,2.54,0.1l2.3-2.32v6.46H1.92
			C0.86,12.69,0,13.55,0,14.61v21.46C0,37.13,0.86,38,1.92,38h32.16c1.06,0,1.92-0.87,1.92-1.93V14.61
			C36,13.55,35.14,12.69,34.08,12.69z M32.4,34.39H3.6V16.3h12.62v3.91c-1.54,0.58-2.78,1.78-3.31,3.33
			c-0.96,2.85,0.48,5.98,3.31,6.94c2.83,0.96,5.95-0.48,6.91-3.33c0.96-2.84-0.48-5.93-3.31-6.94V16.3H32.4V34.39z"/>
	</g>
</g>
</svg>
