<?xml version="1.0" encoding="utf-8"?>
<!-- Generator: Adobe Illustrator 23.0.3, SVG Export Plug-In . SVG Version: 6.00 Build 0)  -->
<svg version="1.1" xmlns="http://www.w3.org/2000/svg" xmlns:xlink="http://www.w3.org/1999/xlink" x="0px" y="0px"
	 viewBox="0 0 47 47" style="enable-background:new 0 0 47 47;" xml:space="preserve">
<style type="text/css">
	.st0{enable-background:new    ;}
	.st1{fill:#17C06D;}
	.st2{fill:#FFFFFF;}
</style>
<g id="Ellipse_1_copy_5_1_" class="st0">
	<g id="Ellipse_1_copy_5">
		<g>
			<path class="st1" d="M23.5,0C10.52,0,0,10.52,0,23.5C0,36.48,10.52,47,23.5,47C36.48,47,47,36.48,47,23.5
				C47,10.52,36.48,0,23.5,0z"/>
		</g>
	</g>
</g>
<g id="Shape_2114_1_" class="st0">
	<g id="Shape_2114">
		<g>
			<path class="st2" d="M34.93,23.33c-0.11-0.86-0.78-1.53-1.69-1.64l-7.83-0.01l-0.01-7.93c-0.13-1.03-1.06-1.76-2.09-1.64
				c-0.85,0.11-1.52,0.78-1.63,1.7l0.01,7.87l-7.83-0.01c-1.02,0.01-1.85,0.84-1.86,1.87v0c0,1.04,0.84,1.88,1.87,1.88l7.83,0.01
				l0.01,7.95c0.14,0.93,0.94,1.6,1.85,1.59c0.09,0,0.19-0.01,0.29-0.02c0.82-0.13,1.45-0.76,1.57-1.66l-0.01-7.87l7.89,0
				c0.5-0.06,0.94-0.31,1.25-0.71C34.86,24.32,35,23.83,34.93,23.33z"/>
		</g>
	</g>
</g>
</svg>
