<?xml version="1.0" encoding="utf-8"?>
<!-- Generator: Adobe Illustrator 23.0.3, SVG Export Plug-In . SVG Version: 6.00 Build 0)  -->
<svg version="1.1" id="icon_1_" xmlns="http://www.w3.org/2000/svg" xmlns:xlink="http://www.w3.org/1999/xlink" x="0px" y="0px"
	 viewBox="0 0 37 36" style="enable-background:new 0 0 37 36;" xml:space="preserve">
<style type="text/css">
	.st0{fill-rule:evenodd;clip-rule:evenodd;fill:#A2ABB8;}
</style>
<g id="icon">
	<g>
		<path class="st0" d="M22.64,19.52c-1.36,0-2.47,1.11-2.47,2.48c0,1.37,1.1,2.48,2.47,2.48s2.47-1.11,2.47-2.48
			C25.11,20.63,24,19.52,22.64,19.52z M14.4,16.16c1.36,0,2.47-1.11,2.47-2.48c0-1.37-1.11-2.48-2.47-2.48
			c-1.36,0-2.47,1.11-2.47,2.48C11.93,15.05,13.04,16.16,14.4,16.16z M36.04,15.59l-1.9-1.95c-0.31-0.4-0.48-0.89-0.44-1.42
			l0.4-2.74c0.26-1.81-0.97-3.54-2.82-3.85l-2.64-0.49c-0.49-0.13-0.93-0.44-1.19-0.89l-1.28-2.43c-0.88-1.64-2.86-2.3-4.5-1.46
			l-2.42,1.19c-0.48,0.22-1.01,0.22-1.45,0l-2.42-1.19c-1.67-0.8-3.66-0.13-4.5,1.46L9.59,4.26C9.33,4.7,8.89,5.01,8.4,5.14
			L5.76,5.63C3.95,5.94,2.72,7.67,2.94,9.48l0.35,2.74c0.04,0.53-0.13,1.02-0.44,1.42l-1.9,1.99c-1.28,1.33-1.28,3.45,0,4.78
			l1.9,1.95c0.35,0.4,0.48,0.93,0.44,1.42l-0.4,2.74c-0.26,1.81,0.97,3.54,2.82,3.85l2.64,0.49c0.48,0.13,0.93,0.44,1.19,0.89
			l1.28,2.43c0.88,1.64,2.86,2.3,4.5,1.46l2.42-1.19c0.49-0.22,1.01-0.22,1.45,0l2.42,1.19c1.67,0.8,3.66,0.13,4.5-1.46l1.28-2.43
			c0.26-0.44,0.71-0.75,1.19-0.89l2.64-0.49c1.81-0.31,3.04-2.04,2.82-3.85l-0.35-2.74c-0.04-0.53,0.09-1.02,0.44-1.42l1.9-1.99
			C37.32,19.04,37.32,16.91,36.04,15.59z M31.85,20.1c-1.06,1.11-1.54,2.65-1.37,4.16l0.4,2.74c0,0.04-2.73,0.62-2.73,0.62
			c-1.5,0.31-2.78,1.24-3.53,2.61l-1.28,2.43c0,0.04-2.56-1.15-2.56-1.15c-1.41-0.66-3-0.66-4.41,0l-2.51,1.11
			c-0.04,0-1.41-2.48-1.41-2.48c-0.75-1.33-2.03-2.3-3.53-2.61c0,0-2.73-0.57-2.73-0.62l0.4-2.74c0.18-1.5-0.31-3.05-1.37-4.16
			c0,0-1.94-2.12-1.9-2.17l1.9-1.9c1.06-1.11,1.54-2.66,1.32-4.2c0,0-0.31-2.83-0.26-2.88l2.64-0.49c1.5-0.31,2.78-1.24,3.53-2.61
			l1.28-2.43c0-0.04,2.56,1.15,2.56,1.15c1.41,0.66,3,0.66,4.41,0l2.42-1.19c0.04,0,1.41,2.48,1.41,2.48
			c0.75,1.33,2.03,2.3,3.53,2.61l2.64,0.49c0.04,0-0.26,2.88-0.26,2.88c-0.18,1.5,0.31,3.05,1.37,4.2l1.9,1.99
			C33.75,17.98,31.85,20.1,31.85,20.1z M22.38,11.6c-0.04,0.04-0.04,0.04-0.09,0.09l-9.92,9.96c-0.62,0.66-0.57,1.73,0.09,2.34
			c0.66,0.58,1.63,0.58,2.25,0l9.92-9.95c0.66-0.62,0.71-1.68,0.09-2.35C24.09,11.03,23.04,10.99,22.38,11.6z"/>
	</g>
</g>
</svg>
