<?xml version="1.0" encoding="utf-8"?>
<!-- Generator: Adobe Illustrator 23.0.3, SVG Export Plug-In . SVG Version: 6.00 Build 0)  -->
<svg version="1.1" id="icon_1_" xmlns="http://www.w3.org/2000/svg" xmlns:xlink="http://www.w3.org/1999/xlink" x="0px" y="0px"
	 viewBox="0 0 37 34" style="enable-background:new 0 0 37 34;" xml:space="preserve">
<style type="text/css">
	.st0{fill-rule:evenodd;clip-rule:evenodd;fill:#A2ABB8;}
</style>
<g id="icon">
	<g>
		<path class="st0" d="M20.1,4.99V1.66c0-0.88-0.69-1.62-1.6-1.62C17.63,0,16.9,0.7,16.9,1.62v3.33c-2.43,0.7-4.2,2.94-4.2,5.56
			c0,2.63,1.78,4.86,4.2,5.56v16.3c0,0.88,0.69,1.62,1.6,1.62c0.87,0,1.6-0.7,1.6-1.62V16.12c2.43-0.7,4.2-2.94,4.2-5.56
			C24.3,7.93,22.53,5.69,20.1,4.99z M18.5,13.14c-1.47,0-2.6-1.14-2.6-2.63c0-1.49,1.13-2.63,2.6-2.63c1.47,0,2.6,1.23,2.6,2.63
			C21.1,11.92,19.97,13.14,18.5,13.14z M7.41,17.79V1.62C7.41,0.74,6.71,0,5.8,0C4.9,0,4.2,0.7,4.2,1.62v16.17
			C1.78,18.49,0,20.72,0,23.35c0,2.63,1.78,4.86,4.2,5.56v3.46C4.2,33.25,4.9,34,5.8,34c0.91,0,1.6-0.7,1.6-1.62v-3.46
			c2.43-0.7,4.2-2.94,4.2-5.56C11.61,20.72,9.83,18.49,7.41,17.79z M5.8,25.98c-1.39,0-2.6-1.23-2.6-2.63c0-1.4,1.13-2.63,2.6-2.63
			c1.47,0,2.6,1.14,2.6,2.63C8.4,24.84,7.19,25.98,5.8,25.98z M32.8,17.79V1.62C32.8,0.74,32.1,0,31.19,0c-0.91,0-1.6,0.7-1.6,1.62
			v16.17c-2.43,0.7-4.2,2.94-4.2,5.57c0,2.63,1.78,4.86,4.2,5.56v3.46c0,0.88,0.69,1.62,1.6,1.62c0.91,0,1.6-0.7,1.6-1.62v-3.46
			c2.43-0.7,4.2-2.94,4.2-5.56C37,20.72,35.22,18.49,32.8,17.79z M31.19,25.98c-1.47,0-2.6-1.14-2.6-2.63c0-1.49,1.13-2.63,2.6-2.63
			c1.47,0,2.6,1.23,2.6,2.63C33.79,24.75,32.67,25.98,31.19,25.98z"/>
	</g>
</g>
</svg>
