<?xml version="1.0" encoding="utf-8"?>
<!-- Generator: Adobe Illustrator 23.0.3, SVG Export Plug-In . SVG Version: 6.00 Build 0)  -->
<svg version="1.1" id="normal_1_" xmlns="http://www.w3.org/2000/svg" xmlns:xlink="http://www.w3.org/1999/xlink" x="0px" y="0px"
	 viewBox="0 0 38 34" style="enable-background:new 0 0 38 34;" xml:space="preserve">
<style type="text/css">
	.st0{fill:#818D9E;}
</style>
<g id="normal">
	<g>
		<path class="st0" d="M35.57,2.43c-3.24-3.28-8.51-3.28-11.76,0c-1.32,1.34-2.1,3.01-2.35,4.75l-7.59,11.65
			c-1.02,0.05-2.03,0.32-2.97,0.79l-5.86-4.63c-1.36-1.08-3.32-0.83-4.38,0.54c-1.06,1.37-0.82,3.36,0.53,4.43l5.79,4.57
			c-0.63,2.51,0.02,5.28,1.97,7.24c2.93,2.97,7.67,2.97,10.61,0c1.8-1.82,2.49-4.33,2.08-6.69l9.24-8.38
			c1.71-0.25,3.37-1.04,4.69-2.38C38.81,11.04,38.81,5.72,35.57,2.43z M14.25,31.46c-2.76,0-4.99-2.26-4.99-5.06v-0.08l2.49,1.97
			c0.57,0.45,1.25,0.67,1.92,0.67c0.93,0,1.84-0.41,2.46-1.21c1.06-1.37,0.82-3.36-0.53-4.43l-2.35-1.86
			c0.33-0.07,0.68-0.11,1.03-0.11c2.76,0,5,2.27,5,5.06C19.25,29.2,17.01,31.46,14.25,31.46z M29.69,14.39
			c-3.28,0-5.94-2.69-5.94-6.01c0-3.32,2.66-6.01,5.94-6.01c3.28,0,5.94,2.69,5.94,6.01C35.62,11.7,32.97,14.39,29.69,14.39z
			 M29.69,4.78c-1.97,0-3.56,1.62-3.56,3.61c0,1.99,1.6,3.61,3.56,3.61c1.97,0,3.56-1.61,3.56-3.61
			C33.25,6.39,31.65,4.78,29.69,4.78z"/>
	</g>
</g>
</svg>
