<?xml version="1.0" encoding="utf-8"?>
<!-- Generator: Adobe Illustrator 23.0.3, SVG Export Plug-In . SVG Version: 6.00 Build 0)  -->
<svg version="1.1" id="normal_1_" xmlns="http://www.w3.org/2000/svg" xmlns:xlink="http://www.w3.org/1999/xlink" x="0px" y="0px"
	 viewBox="0 0 39 32" style="enable-background:new 0 0 39 32;" xml:space="preserve">
<style type="text/css">
	.st0{fill:#818D9E;}
</style>
<g id="normal">
	<g>
		<path class="st0" d="M38.58,0.31c-0.36-0.3-0.85-0.39-1.3-0.22C30.46,2.56,9.47,10.31,0.89,13.44c-0.54,0.2-0.9,0.71-0.88,1.28
			c0.02,0.57,0.41,1.06,0.96,1.22c3.85,1.13,8.9,2.71,8.9,2.71s2.36,7.01,3.59,10.58c0.15,0.45,0.51,0.8,0.98,0.92
			c0.47,0.12,0.97-0.01,1.32-0.33c1.98-1.84,5.03-4.67,5.03-4.67s5.81,4.19,9.1,6.5c0.52,0.36,1.2,0.46,1.8,0.23
			c0.6-0.23,1.04-0.73,1.18-1.34c1.41-6.53,4.84-23.06,6.13-29C39.1,1.07,38.93,0.61,38.58,0.31z M31.89,6.31
			C25.88,11.65,15.33,21,15.33,21l-0.61,5.61L12,17.76c0,0,12.37-7.77,19.34-12.15c0.2-0.12,0.47-0.08,0.61,0.1
			C32.09,5.9,32.07,6.16,31.89,6.31z"/>
	</g>
</g>
</svg>
